<?xml version="1.0" encoding="UTF-8" standalone="no"?>
<!DOCTYPE svg PUBLIC "-//W3C//DTD SVG 1.1//EN"
 "http://www.w3.org/Graphics/SVG/1.1/DTD/svg11.dtd">
<!-- Generated by graphviz version 2.28.0 (20130902.1246)
 -->
<!-- Title: _anonymous_0 Pages: 1 -->
<svg width="624pt" height="620pt"
 viewBox="0.00 0.00 624.00 620.00" xmlns="http://www.w3.org/2000/svg" xmlns:xlink="http://www.w3.org/1999/xlink">
<g id="graph1" class="graph" transform="scale(1 1) rotate(0) translate(4 616)">
<title>_anonymous_0</title>
<polygon fill="white" stroke="white" points="-4,5 -4,-616 621,-616 621,5 -4,5"/>
<!-- [root] cloudeos_clos.clos -->
<g id="node2" class="node"><title>[root] cloudeos_clos.clos</title>
<polygon fill="none" stroke="black" points="332.25,-180 213.75,-180 213.75,-144 332.25,-144 332.25,-180"/>
<text text-anchor="middle" x="273" y="-158.3" font-family="Times,serif" font-size="14.00">cloudeos_clos.clos</text>
</g>
<!-- [root] cloudeos_topology.topology -->
<g id="node6" class="node"><title>[root] cloudeos_topology.topology</title>
<polygon fill="none" stroke="black" points="427.25,-108 256.75,-108 256.75,-72 427.25,-72 427.25,-108"/>
<text text-anchor="middle" x="342" y="-86.3" font-family="Times,serif" font-size="14.00">cloudeos_topology.topology</text>
</g>
<!-- [root] cloudeos_clos.clos&#45;&gt;[root] cloudeos_topology.topology -->
<g id="edge3" class="edge"><title>[root] cloudeos_clos.clos&#45;&gt;[root] cloudeos_topology.topology</title>
<path fill="none" stroke="black" d="M290.056,-143.697C298.495,-135.135 308.825,-124.656 318.043,-115.304"/>
<polygon fill="black" stroke="black" points="320.613,-117.683 325.14,-108.104 315.627,-112.769 320.613,-117.683"/>
</g>
<!-- [root] cloudeos_router_config.cloudeos -->
<g id="node3" class="node"><title>[root] cloudeos_router_config.cloudeos</title>
<polygon fill="none" stroke="black" points="369.25,-396 172.75,-396 172.75,-360 369.25,-360 369.25,-396"/>
<text text-anchor="middle" x="271" y="-374.3" font-family="Times,serif" font-size="14.00">cloudeos_router_config.cloudeos</text>
</g>
<!-- [root] cloudeos_vpc_status.vpc -->
<g id="node8" class="node"><title>[root] cloudeos_vpc_status.vpc</title>
<polygon fill="none" stroke="black" points="418,-324 266,-324 266,-288 418,-288 418,-324"/>
<text text-anchor="middle" x="342" y="-302.3" font-family="Times,serif" font-size="14.00">cloudeos_vpc_status.vpc</text>
</g>
<!-- [root] cloudeos_router_config.cloudeos&#45;&gt;[root] cloudeos_vpc_status.vpc -->
<g id="edge5" class="edge"><title>[root] cloudeos_router_config.cloudeos&#45;&gt;[root] cloudeos_vpc_status.vpc</title>
<path fill="none" stroke="black" d="M288.551,-359.697C297.234,-351.135 307.863,-340.656 317.348,-331.304"/>
<polygon fill="black" stroke="black" points="319.988,-333.617 324.651,-324.104 315.073,-328.633 319.988,-333.617"/>
</g>
<!-- [root] cloudeos_router_status.cloudeos -->
<g id="node4" class="node"><title>[root] cloudeos_router_status.cloudeos</title>
<polygon fill="none" stroke="black" points="337.25,-468 144.75,-468 144.75,-432 337.25,-432 337.25,-468"/>
<text text-anchor="middle" x="241" y="-446.3" font-family="Times,serif" font-size="14.00">cloudeos_router_status.cloudeos</text>
</g>
<!-- [root] cloudeos_router_status.cloudeos&#45;&gt;[root] cloudeos_router_config.cloudeos -->
<g id="edge7" class="edge"><title>[root] cloudeos_router_status.cloudeos&#45;&gt;[root] cloudeos_router_config.cloudeos</title>
<path fill="none" stroke="black" d="M248.416,-431.697C251.794,-423.813 255.87,-414.304 259.623,-405.546"/>
<polygon fill="black" stroke="black" points="262.947,-406.675 263.67,-396.104 256.513,-403.917 262.947,-406.675"/>
</g>
<!-- [root] cloudeos_subnet.subnet -->
<g id="node5" class="node"><title>[root] cloudeos_subnet.subnet</title>
<polygon fill="none" stroke="black" points="502,-468 356,-468 356,-432 502,-432 502,-468"/>
<text text-anchor="middle" x="429" y="-446.3" font-family="Times,serif" font-size="14.00">cloudeos_subnet.subnet</text>
</g>
<!-- [root] cloudeos_subnet.subnet&#45;&gt;[root] cloudeos_vpc_status.vpc -->
<g id="edge9" class="edge"><title>[root] cloudeos_subnet.subnet&#45;&gt;[root] cloudeos_vpc_status.vpc</title>
<path fill="none" stroke="black" d="M419.605,-431.709C409.65,-413.607 393.288,-384.466 378,-360 372.4,-351.039 365.999,-341.43 360.162,-332.888"/>
<polygon fill="black" stroke="black" points="362.899,-330.691 354.341,-324.444 357.136,-334.664 362.899,-330.691"/>
</g>
<!-- [root] provider.cloudeos -->
<g id="node10" class="node"><title>[root] provider.cloudeos</title>
<polygon fill="none" stroke="black" points="342,-36 237.823,-18 342,-3.55271e-15 446.177,-18 342,-36"/>
<text text-anchor="middle" x="342" y="-14.3" font-family="Times,serif" font-size="14.00">provider.cloudeos</text>
</g>
<!-- [root] cloudeos_topology.topology&#45;&gt;[root] provider.cloudeos -->
<g id="edge11" class="edge"><title>[root] cloudeos_topology.topology&#45;&gt;[root] provider.cloudeos</title>
<path fill="none" stroke="black" d="M342,-71.6966C342,-63.9827 342,-54.7125 342,-46.1124"/>
<polygon fill="black" stroke="black" points="345.5,-46.1043 342,-36.1043 338.5,-46.1044 345.5,-46.1043"/>
</g>
<!-- [root] cloudeos_vpc_config.vpc -->
<g id="node7" class="node"><title>[root] cloudeos_vpc_config.vpc</title>
<polygon fill="none" stroke="black" points="419.25,-252 264.75,-252 264.75,-216 419.25,-216 419.25,-252"/>
<text text-anchor="middle" x="342" y="-230.3" font-family="Times,serif" font-size="14.00">cloudeos_vpc_config.vpc</text>
</g>
<!-- [root] cloudeos_vpc_config.vpc&#45;&gt;[root] cloudeos_clos.clos -->
<g id="edge13" class="edge"><title>[root] cloudeos_vpc_config.vpc&#45;&gt;[root] cloudeos_clos.clos</title>
<path fill="none" stroke="black" d="M324.944,-215.697C316.505,-207.135 306.175,-196.656 296.957,-187.304"/>
<polygon fill="black" stroke="black" points="299.373,-184.769 289.86,-180.104 294.387,-189.683 299.373,-184.769"/>
</g>
<!-- [root] cloudeos_wan.wan -->
<g id="node9" class="node"><title>[root] cloudeos_wan.wan</title>
<polygon fill="none" stroke="black" points="471,-180 351,-180 351,-144 471,-144 471,-180"/>
<text text-anchor="middle" x="411" y="-158.3" font-family="Times,serif" font-size="14.00">cloudeos_wan.wan</text>
</g>
<!-- [root] cloudeos_vpc_config.vpc&#45;&gt;[root] cloudeos_wan.wan -->
<g id="edge15" class="edge"><title>[root] cloudeos_vpc_config.vpc&#45;&gt;[root] cloudeos_wan.wan</title>
<path fill="none" stroke="black" d="M359.056,-215.697C367.495,-207.135 377.825,-196.656 387.043,-187.304"/>
<polygon fill="black" stroke="black" points="389.613,-189.683 394.14,-180.104 384.627,-184.769 389.613,-189.683"/>
</g>
<!-- [root] cloudeos_vpc_status.vpc&#45;&gt;[root] cloudeos_vpc_config.vpc -->
<g id="edge17" class="edge"><title>[root] cloudeos_vpc_status.vpc&#45;&gt;[root] cloudeos_vpc_config.vpc</title>
<path fill="none" stroke="black" d="M342,-287.697C342,-279.983 342,-270.712 342,-262.112"/>
<polygon fill="black" stroke="black" points="345.5,-262.104 342,-252.104 338.5,-262.104 345.5,-262.104"/>
</g>
<!-- [root] cloudeos_wan.wan&#45;&gt;[root] cloudeos_topology.topology -->
<g id="edge19" class="edge"><title>[root] cloudeos_wan.wan&#45;&gt;[root] cloudeos_topology.topology</title>
<path fill="none" stroke="black" d="M393.944,-143.697C385.505,-135.135 375.175,-124.656 365.957,-115.304"/>
<polygon fill="black" stroke="black" points="368.373,-112.769 358.86,-108.104 363.387,-117.683 368.373,-112.769"/>
</g>
<!-- [root] meta.count&#45;boundary (EachMode fixup) -->
<g id="node20" class="node"><title>[root] meta.count&#45;boundary (EachMode fixup)</title>
<ellipse fill="none" stroke="black" cx="176" cy="-522" rx="176.177" ry="18"/>
<text text-anchor="middle" x="176" y="-518.3" font-family="Times,serif" font-size="14.00">[root] meta.count&#45;boundary (EachMode fixup)</text>
</g>
<!-- [root] meta.count&#45;boundary (EachMode fixup)&#45;&gt;[root] cloudeos_router_status.cloudeos -->
<g id="edge21" class="edge"><title>[root] meta.count&#45;boundary (EachMode fixup)&#45;&gt;[root] cloudeos_router_status.cloudeos</title>
<path fill="none" stroke="black" d="M191.735,-504.055C199.601,-495.583 209.273,-485.168 217.957,-475.815"/>
<polygon fill="black" stroke="black" points="220.719,-477.985 224.959,-468.275 215.589,-473.222 220.719,-477.985"/>
</g>
<!-- [root] meta.count&#45;boundary (EachMode fixup)&#45;&gt;[root] cloudeos_subnet.subnet -->
<g id="edge23" class="edge"><title>[root] meta.count&#45;boundary (EachMode fixup)&#45;&gt;[root] cloudeos_subnet.subnet</title>
<path fill="none" stroke="black" d="M234.043,-504.941C270.759,-494.782 318.485,-481.577 357.526,-470.776"/>
<polygon fill="black" stroke="black" points="358.548,-474.124 367.252,-468.084 356.681,-467.378 358.548,-474.124"/>
</g>
<!-- [root] provider.cloudeos (close) -->
<g id="node23" class="node"><title>[root] provider.cloudeos (close)</title>
<ellipse fill="none" stroke="black" cx="494" cy="-522" rx="122.259" ry="18"/>
<text text-anchor="middle" x="494" y="-518.3" font-family="Times,serif" font-size="14.00">[root] provider.cloudeos (close)</text>
</g>
<!-- [root] provider.cloudeos (close)&#45;&gt;[root] cloudeos_router_status.cloudeos -->
<g id="edge25" class="edge"><title>[root] provider.cloudeos (close)&#45;&gt;[root] cloudeos_router_status.cloudeos</title>
<path fill="none" stroke="black" d="M439.103,-505.811C401.913,-495.521 352.411,-481.825 312.195,-470.698"/>
<polygon fill="black" stroke="black" points="313.02,-467.295 302.449,-468.002 311.153,-474.042 313.02,-467.295"/>
</g>
<!-- [root] provider.cloudeos (close)&#45;&gt;[root] cloudeos_subnet.subnet -->
<g id="edge27" class="edge"><title>[root] provider.cloudeos (close)&#45;&gt;[root] cloudeos_subnet.subnet</title>
<path fill="none" stroke="black" d="M478.265,-504.055C470.399,-495.583 460.727,-485.168 452.043,-475.815"/>
<polygon fill="black" stroke="black" points="454.411,-473.222 445.041,-468.275 449.281,-477.985 454.411,-473.222"/>
</g>
<!-- [root] root -->
<g id="node26" class="node"><title>[root] root</title>
<ellipse fill="none" stroke="black" cx="335" cy="-594" rx="47.169" ry="18"/>
<text text-anchor="middle" x="335" y="-590.3" font-family="Times,serif" font-size="14.00">[root] root</text>
</g>
<!-- [root] root&#45;&gt;[root] meta.count&#45;boundary (EachMode fixup) -->
<g id="edge29" class="edge"><title>[root] root&#45;&gt;[root] meta.count&#45;boundary (EachMode fixup)</title>
<path fill="none" stroke="black" d="M305.093,-579.834C282.099,-569.71 249.889,-555.53 223.396,-543.866"/>
<polygon fill="black" stroke="black" points="224.484,-540.521 213.922,-539.695 221.664,-546.928 224.484,-540.521"/>
</g>
<!-- [root] root&#45;&gt;[root] provider.cloudeos (close) -->
<g id="edge31" class="edge"><title>[root] root&#45;&gt;[root] provider.cloudeos (close)</title>
<path fill="none" stroke="black" d="M364.907,-579.834C388.323,-569.524 421.298,-555.007 448.059,-543.226"/>
<polygon fill="black" stroke="black" points="449.498,-546.416 457.24,-539.184 446.677,-540.01 449.498,-546.416"/>
</g>
</g>
</svg>
